<svg width="31" height="62" viewBox="0 0 31 62" fill="none" xmlns="http://www.w3.org/2000/svg">
<path d="M23.4688 0.8125C24.0729 0.8125 24.6667 1.09375 25.25 1.65625C25.8542 2.21875 26.1562 2.77083 26.1562 3.3125C26.1562 3.39583 26.0938 3.52083 25.9688 3.6875C25.8438 3.83333 25.6875 4.14583 25.5 4.625C25.3125 5.08333 24.8125 5.3125 24 5.3125C23.2292 5.3125 22.6458 4.92708 22.25 4.15625C21.875 3.38542 21.6875 2.89583 21.6875 2.6875C21.6875 2.60417 21.7083 2.47917 21.75 2.3125C21.7917 2.125 21.8229 1.86458 21.8438 1.53125C21.8646 1.19792 22.0729 1.03125 22.4688 1.03125L23.1562 0.875C23.1979 0.833333 23.3021 0.8125 23.4688 0.8125ZM16.5 25.3438V25.2188C16.5 25.0938 16.5625 24.9375 16.6875 24.75L17.4062 23.1562C17.4479 22.9896 17.5 22.8646 17.5625 22.7812C17.625 22.6979 17.6562 22.5 17.6562 22.1875L17.9062 21.375C17.9479 21.2917 17.9688 21.0938 17.9688 20.7812L18.2812 19.625L18.2188 19C17.4062 19.4583 16.7708 19.8854 16.3125 20.2812L15.6875 20.5938C15.5833 20.6771 15.4271 20.9375 15.2188 21.375L14.6562 21.75C14.2604 22.125 14.0625 22.3646 14.0625 22.4688C14.0625 22.6771 13.8125 22.8958 13.3125 23.125C12.8125 23.3333 12.5312 23.6458 12.4688 24.0625V24.1875C12.2604 24.3958 12.0521 24.5 11.8438 24.5C11.5312 24.5 11.2188 24.3438 10.9062 24.0312C10.5938 23.6979 10.4375 23.4062 10.4375 23.1562C10.4375 22.4271 10.5208 21.9896 10.6875 21.8438C10.8542 21.6979 11.0208 21.5104 11.1875 21.2812C11.3542 21.0312 11.7396 20.7604 12.3438 20.4688C12.8438 19.8438 13.25 19.4583 13.5625 19.3125C13.875 19.1458 14.2812 18.7396 14.7812 18.0938C15.9896 17.1979 16.9479 16.5625 17.6562 16.1875C17.6979 16.1875 17.875 16 18.1875 15.625C18.5 15.2292 19.1146 14.75 20.0312 14.1875L20.4062 13.75C20.5729 13.5417 20.8542 13.4375 21.25 13.4375C21.7917 13.4375 22.3021 13.75 22.7812 14.375C23.2812 14.9792 23.5312 15.6042 23.5312 16.25C23.5312 16.625 23.4271 16.9688 23.2188 17.2812L23.0312 17.8438C22.9479 18.4479 22.8229 18.9167 22.6562 19.25C22.4896 20.1458 22.375 20.9375 22.3125 21.625C22.0208 22.0417 21.7396 22.8333 21.4688 24L21.0625 25.4062C21.0625 25.9062 20.9375 26.3854 20.6875 26.8438C20.4583 27.2812 20.3021 27.8646 20.2188 28.5938L19.9688 28.9688L19.9062 29.5C19.9062 29.625 19.875 29.7083 19.8125 29.75C19.75 29.7917 19.6458 30.0104 19.5 30.4062C19.375 30.7812 19.25 31.0729 19.125 31.2812C18.9167 31.6354 18.8125 32.2812 18.8125 33.2188L18.875 33.4062C18.7083 33.4271 18.5 33.7083 18.25 34.25C18.0208 34.7708 17.9062 35.0625 17.9062 35.125C17.9062 35.25 17.9479 35.3125 18.0312 35.3125L19.3125 34.9375C19.75 34.8542 20.0729 34.8021 20.2812 34.7812C20.4896 34.7604 20.6771 34.7188 20.8438 34.6562C21.0312 34.5938 21.5625 34.4896 22.4375 34.3438C23.3333 34.1771 23.9583 34.0938 24.3125 34.0938L24.9375 34.1562L26.5 33.9062C26.5833 33.8646 26.7292 33.8438 26.9375 33.8438C28.0833 33.8438 28.9896 34.1667 29.6562 34.8125C30.3229 35.4583 30.6562 36.2292 30.6562 37.125C30.6562 38.1875 30.0729 38.7604 28.9062 38.8438H28.7188L28.2812 38.9062C27.9896 38.9062 27.7083 38.6042 27.4375 38C27.1875 37.4167 26.9167 37.125 26.625 37.125L26.1562 37.1875C25.8646 37.0417 25.625 36.9688 25.4375 36.9688C25.25 36.9688 25.0625 36.9062 24.875 36.7812C24.7083 36.6562 24.4479 36.5521 24.0938 36.4688C23.7604 36.3854 23.3229 36.2396 22.7812 36.0312C22.0938 36.1979 21.6458 36.2812 21.4375 36.2812H21.0625L19.5625 36.7188H19.3125L18.75 36.5312C18.4583 36.8021 17.9062 37.0833 17.0938 37.375C16.9688 37.5 16.875 37.7292 16.8125 38.0625C16.7708 38.4167 16.6458 38.7188 16.4375 38.9688L16.3125 39.4062C16.2292 39.5938 16.1042 39.7396 15.9375 39.8438C15.7708 39.9479 15.6875 40.0417 15.6875 40.125C15.6875 40.1667 15.7292 40.3333 15.8125 40.625V40.75C15.8125 40.7917 15.7917 40.8542 15.75 40.9375L15.6875 41.2812V41.5938C15.6875 41.6771 15.5833 41.8021 15.375 41.9688C15.1875 42.1354 14.9896 42.4375 14.7812 42.875L14.6562 43C14.5729 43.0833 14.5312 43.1667 14.5312 43.25L14.5938 44.3438C14.5938 44.6354 14.4167 44.8229 14.0625 44.9062C13.8125 45.4688 13.6667 45.875 13.625 46.125C13.5833 46.3958 13.4792 46.6146 13.3125 46.7812L12.1562 48.8125C12.1562 49.0417 12.0729 49.3542 11.9062 49.75C11.7396 50.1667 11.6458 50.4583 11.625 50.625C11.5 50.75 11.375 50.8542 11.25 50.9375C11 51.8542 10.8229 52.3438 10.7188 52.4062C10.6146 52.4896 10.5 52.7917 10.375 53.3125C10 53.5625 9.76042 53.9271 9.65625 54.4062C9.53125 54.8854 9.20833 55.3125 8.6875 55.6875C8.16667 56.9583 7.3125 58.1979 6.125 59.4062C4.91667 60.6354 4.04167 61.25 3.5 61.25C3.41667 61.25 3.29167 61.1875 3.125 61.0625C2.72917 61.0625 2.4375 60.8854 2.25 60.5312C2.0625 60.1979 1.88542 59.9479 1.71875 59.7812C1.55208 59.6354 1.44792 59.4792 1.40625 59.3125C1.36458 59.1458 1.27083 58.9479 1.125 58.7188C0.958333 58.4896 0.875 58.2604 0.875 58.0312L0.75 56.5625L0.8125 54.125C0.854167 54.0833 0.927083 53.9062 1.03125 53.5938C1.51042 51.7396 1.82292 50.7083 1.96875 50.5C2.09375 50.3125 2.17708 50.0312 2.21875 49.6562C2.40625 49.4062 2.61458 49.0208 2.84375 48.5C3.07292 48 3.19792 47.5938 3.21875 47.2812C3.23958 46.9896 3.40625 46.7396 3.71875 46.5312C3.92708 45.9271 4.21875 45.4583 4.59375 45.125L4.90625 44.5938C5.34375 43.9688 5.77083 43.6042 6.1875 43.5C6.77083 42.3125 7.66667 41.1146 8.875 39.9062C10.0833 38.6979 10.9792 38 11.5625 37.8125C11.6875 37.5417 11.8542 37.3333 12.0625 37.1875C12.2917 37.0417 12.5312 36.8438 12.7812 36.5938L13.375 36.0938C13.75 34.8854 14.0312 34.0833 14.2188 33.6875C14.4062 33.2917 14.5521 32.7812 14.6562 32.1562C14.7812 31.5312 14.9479 31.0104 15.1562 30.5938L15.2188 30C15.2188 29.9583 15.3229 29.7812 15.5312 29.4688C15.7396 29.1562 15.9375 28.4583 16.125 27.375C16.125 27.1667 16.2083 26.9271 16.375 26.6562C16.5417 26.3646 16.625 26.1771 16.625 26.0938L16.5 25.3438ZM5.875 54.7812H6C6.16667 54.7812 6.32292 54.7396 6.46875 54.6562L6.1875 54C6.1875 53.7083 6.35417 53.3125 6.6875 52.8125C7 52.3333 7.3125 51.7708 7.625 51.125C7.91667 50.4792 8.22917 50.0729 8.5625 49.9062L8.3125 49.4688C8.47917 48.9688 8.58333 48.5833 8.625 48.3125L11.375 41.4688C11.7917 40.5104 11.9896 39.8854 11.9688 39.5938C11.4479 39.9688 11.0417 40.375 10.75 40.8125C10.75 40.8542 10.5104 41.0833 10.0312 41.5C9.53125 41.9167 9.08333 42.2292 8.6875 42.4375L7.21875 44.4688C6.98958 44.8021 6.78125 45.0208 6.59375 45.125C5.88542 46.375 5.45833 47.2083 5.3125 47.625C5.14583 48.0417 4.98958 48.3125 4.84375 48.4375L4.53125 49.2188L4.15625 49.8438L4.09375 50.625C3.92708 51.0417 3.79167 51.3229 3.6875 51.4688C3.5625 51.6354 3.47917 51.7604 3.4375 51.8438L3.5625 53.25C3.1875 53.75 3 54.1771 3 54.5312L3.21875 55.875C3.28125 56.375 3.39583 56.625 3.5625 56.625C3.66667 56.625 3.83333 56.5 4.0625 56.25C4.29167 56 4.52083 55.8438 4.75 55.7812C4.95833 55.7188 5.16667 55.6354 5.375 55.5312C5.47917 55.2188 5.64583 54.9688 5.875 54.7812Z" fill="#EB8CB7"/>
</svg>
